<?xml version="1.0" encoding="UTF-8"?>
<!DOCTYPE svg PUBLIC "-//W3C//DTD SVG 1.1//EN" "http://www.w3.org/Graphics/SVG/1.1/DTD/svg11.dtd">
<!-- Creator: CorelDRAW X8 -->
<svg xmlns="http://www.w3.org/2000/svg" xml:space="preserve" width="1.56898in" height="0.958886in" version="1.1" style="shape-rendering:geometricPrecision; text-rendering:geometricPrecision; image-rendering:optimizeQuality; fill-rule:evenodd; clip-rule:evenodd"
viewBox="0 0 338 206"
 xmlns:xlink="http://www.w3.org/1999/xlink">
 <defs>
  <style type="text/css">
   <![CDATA[
    .fil0 {fill:#FEFEFE;fill-rule:nonzero}
   ]]>
  </style>
 </defs>
 <g id="Layer_x0020_1">
  <metadata id="CorelCorpID_0Corel-Layer"/>
  <g id="_695667276720">
   <path class="fil0" d="M294 121l0 10c0,2 0,2 2,2l0 1 -9 0 0 -1c2,0 2,0 2,-2l0 -10 -1 0c-2,0 -3,0 -4,3l0 0 0 -4 15 0 0 4 0 0c-1,-3 -2,-3 -4,-3l-1 0z"/>
   <path class="fil0" d="M319 120l8 0 0 0c-3,0 -3,1 -3,2l0 9c0,2 0,2 3,2l0 1 -10 0 0 -1c3,0 3,0 3,-2l0 -10 0 0 -7 13 0 0 -7 -13 0 0 0 11c0,1 1,1 3,1l0 1 -6 0 0 -1c1,0 2,0 2,-1l0 -10c0,-1 0,-2 -2,-2l0 0 7 0 5 9 4 -9z"/>
   <path class="fil0" d="M180 146c12,-6 20,-10 20,-10 -7,4 -14,7 -20,10z"/>
   <path class="fil0" d="M37 152c0,0 -146,126 143,-6 -52,23 -179,75 -143,6z"/>
   <path class="fil0" d="M157 58c-12,6 -20,10 -20,10 7,-4 14,-7 20,-10z"/>
   <path class="fil0" d="M157 58c52,-22 180,-72 143,-4 0,0 148,-124 -143,4z"/>
   <path class="fil0" d="M57 130c31,0 57,-17 57,-34 0,-12 -15,-20 -38,-19 -31,0 -57,18 -57,34 0,12 16,20 38,19zm20 -50c12,0 16,5 16,10 0,10 -12,37 -37,37 -11,0 -16,-5 -16,-10 0,-10 13,-37 37,-37z"/>
   <path class="fil0" d="M218 107l-44 0 -1 3c5,0 12,0 12,3 0,7 -8,13 -22,13 -14,0 -21,-5 -21,-13 -1,-10 11,-34 36,-34 15,0 20,6 20,13l5 0 6 -16 -6 0 -4 4c-6,-3 -15,-4 -24,-4 -31,0 -55,17 -55,33 1,13 17,21 39,20 12,0 18,-1 29,-4 3,0 9,0 13,0l2 -7c1,-1 2,-6 5,-7 2,-1 6,-1 8,-1l2 -3z"/>
   <path class="fil0" d="M275 75c-6,1 -12,1 -18,1 -7,0 -14,0 -21,0l-1 2c6,1 13,0 13,3 0,2 -3,7 -4,9l-14 28c-2,4 -3,7 -13,7l-1 3c7,0 14,0 20,-1 8,0 16,0 24,0l1 -2c-6,0 -12,1 -12,-3 0,-2 2,-6 3,-8l5 -11 13 0c18,0 42,-3 42,-15 0,-11 -22,-13 -37,-13zm-8 25c-3,0 -5,0 -8,0l0 0 8 -16c2,-3 1,-5 8,-5 9,0 16,1 16,7 0,8 -9,14 -24,14z"/>
   <path class="fil0" d="M180 146c12,-6 20,-10 20,-10 -7,4 -14,7 -20,10z"/>
   <path class="fil0" d="M37 152c0,0 -146,126 143,-6 -52,23 -179,75 -143,6z"/>
   <path class="fil0" d="M157 58c-12,6 -20,10 -20,10 7,-4 14,-7 20,-10z"/>
   <path class="fil0" d="M157 58c52,-22 180,-72 143,-4 0,0 148,-124 -143,4z"/>
   <path class="fil0" d="M57 130c31,0 57,-17 57,-34 0,-12 -15,-20 -38,-19 -31,0 -57,18 -57,34 0,12 16,20 38,19zm20 -50c12,0 16,5 16,10 0,10 -12,37 -37,37 -11,0 -16,-5 -16,-10 0,-10 13,-37 37,-37z"/>
   <path class="fil0" d="M218 107l-44 0 -1 3c5,0 12,0 12,3 0,7 -8,13 -22,13 -14,0 -21,-5 -21,-13 -1,-10 11,-34 36,-34 15,0 20,6 20,13l5 0 6 -16 -6 0 -4 4c-6,-3 -15,-4 -24,-4 -31,0 -55,17 -55,33 1,13 17,21 39,20 12,0 18,-1 29,-4 3,0 9,0 13,0l2 -7c1,-1 2,-6 5,-7 2,-1 6,-1 8,-1l2 -3z"/>
   <path class="fil0" d="M275 75c-6,1 -12,1 -18,1 -7,0 -14,0 -21,0l-1 2c6,1 13,0 13,3 0,2 -3,7 -4,9l-14 28c-2,4 -3,7 -13,7l-1 3c7,0 14,0 20,-1 8,0 16,0 24,0l1 -2c-6,0 -12,1 -12,-3 0,-2 2,-6 3,-8l5 -11 13 0c18,0 42,-3 42,-15 0,-11 -22,-13 -37,-13zm-8 25c-3,0 -5,0 -8,0l0 0 8 -16c2,-3 1,-5 8,-5 9,0 16,1 16,7 0,8 -9,14 -24,14z"/>
  </g>
 </g>
</svg>
