<?xml version="1.0" encoding="UTF-8"?>
<!DOCTYPE svg PUBLIC "-//W3C//DTD SVG 1.1//EN" "http://www.w3.org/Graphics/SVG/1.1/DTD/svg11.dtd">
<!-- Creator: CorelDRAW 2017 -->
<svg xmlns="http://www.w3.org/2000/svg" xml:space="preserve" width="39.7945mm" height="24.3132mm" version="1.1" style="shape-rendering:geometricPrecision; text-rendering:geometricPrecision; image-rendering:optimizeQuality; fill-rule:evenodd; clip-rule:evenodd"
viewBox="0 0 3977 2430"
 xmlns:xlink="http://www.w3.org/1999/xlink">
 <defs>
  <style type="text/css">
   <![CDATA[
    .fil0 {fill:#FEFEFE;fill-rule:nonzero}
   ]]>
  </style>
 </defs>
 <g id="Layer_x0020_1">
  <metadata id="CorelCorpID_0Corel-Layer"/>
  <g id="_852403602320">
   <path class="fil0" d="M3462 1425l0 118c0,24 0,24 24,24l0 12 -106 0 0 -12c24,0 24,0 24,-24l0 -118 -12 0c-24,0 -35,0 -47,35l0 0 0 -47 177 0 0 47 0 0c-12,-35 -24,-35 -47,-35l-12 0z"/>
   <path class="fil0" d="M3757 1413l94 0 0 0c-35,0 -35,12 -35,24l0 106c0,24 0,24 35,24l0 12 -118 0 0 -12c35,0 35,0 35,-24l0 -118 0 0 -82 153 0 0 -82 -153 0 0 0 130c0,12 12,12 35,12l0 12 -71 0 0 -12c12,0 24,0 24,-12l0 -118c0,-12 0,-24 -24,-24l0 0 82 0 59 106 47 -106 0 0z"/>
   <path class="fil0" d="M2119 1720c141,-71 236,-118 236,-118 -82,47 -165,82 -236,118z"/>
   <path class="fil0" d="M435 1790c0,0 -1720,1485 1685,-71 -613,271 -2109,884 -1685,71z"/>
   <path class="fil0" d="M1848 683c-141,71 -236,118 -236,118 82,-47 165,-82 236,-118z"/>
   <path class="fil0" d="M1848 683c613,-259 2121,-848 1685,-47 0,0 1744,-1461 -1685,47z"/>
   <path class="fil0" d="M670 1531c365,0 672,-200 672,-401 0,-141 -177,-236 -448,-224 -365,0 -672,212 -672,401 0,141 189,236 448,224zm236 -589c141,0 189,59 189,118 0,118 -141,436 -436,436 -130,0 -189,-59 -189,-118 0,-118 153,-436 436,-436z"/>
   <path class="fil0" d="M2567 1260l-518 0 -12 35c59,0 141,0 141,35 0,82 -94,153 -259,153 -165,0 -247,-59 -247,-153 -12,-118 130,-401 424,-401 177,0 236,71 236,153l59 0 71 -189 -71 0 -47 47c-71,-35 -177,-47 -283,-47 -365,0 -648,200 -648,389 12,153 200,247 459,236 141,0 212,-12 342,-47 35,0 106,0 153,0l24 -82c12,-12 24,-71 59,-82 24,-12 71,-12 94,-12l24 -35 0 0z"/>
   <path class="fil0" d="M3239 883c-71,12 -141,12 -212,12 -82,0 -165,0 -247,0l-12 24c71,12 153,0 153,35 0,24 -35,82 -47,106l-165 330c-24,47 -35,82 -153,82l-12 35c82,0 165,0 236,-12 94,0 189,0 283,0l12 -24c-71,0 -141,12 -141,-35 0,-24 24,-71 35,-94l59 -130 153 0c212,0 495,-35 495,-177 0,-130 -259,-153 -436,-153l0 0zm-94 295c-35,0 -59,0 -94,0l0 0 94 -189c24,-35 12,-59 94,-59 106,0 189,12 189,82 0,94 -106,165 -283,165z"/>
   <path class="fil0" d="M2119 1720c141,-71 236,-118 236,-118 -82,47 -165,82 -236,118z"/>
   <path class="fil0" d="M435 1790c0,0 -1720,1485 1685,-71 -613,271 -2109,884 -1685,71z"/>
   <path class="fil0" d="M1848 683c-141,71 -236,118 -236,118 82,-47 165,-82 236,-118z"/>
   <path class="fil0" d="M1848 683c613,-259 2121,-848 1685,-47 0,0 1744,-1461 -1685,47z"/>
   <path class="fil0" d="M670 1531c365,0 672,-200 672,-401 0,-141 -177,-236 -448,-224 -365,0 -672,212 -672,401 0,141 189,236 448,224zm236 -589c141,0 189,59 189,118 0,118 -141,436 -436,436 -130,0 -189,-59 -189,-118 0,-118 153,-436 436,-436z"/>
   <path class="fil0" d="M2567 1260l-518 0 -12 35c59,0 141,0 141,35 0,82 -94,153 -259,153 -165,0 -247,-59 -247,-153 -12,-118 130,-401 424,-401 177,0 236,71 236,153l59 0 71 -189 -71 0 -47 47c-71,-35 -177,-47 -283,-47 -365,0 -648,200 -648,389 12,153 200,247 459,236 141,0 212,-12 342,-47 35,0 106,0 153,0l24 -82c12,-12 24,-71 59,-82 24,-12 71,-12 94,-12l24 -35 0 0z"/>
   <path class="fil0" d="M3239 883c-71,12 -141,12 -212,12 -82,0 -165,0 -247,0l-12 24c71,12 153,0 153,35 0,24 -35,82 -47,106l-165 330c-24,47 -35,82 -153,82l-12 35c82,0 165,0 236,-12 94,0 189,0 283,0l12 -24c-71,0 -141,12 -141,-35 0,-24 24,-71 35,-94l59 -130 153 0c212,0 495,-35 495,-177 0,-130 -259,-153 -436,-153l0 0zm-94 295c-35,0 -59,0 -94,0l0 0 94 -189c24,-35 12,-59 94,-59 106,0 189,12 189,82 0,94 -106,165 -283,165z"/>
  </g>
 </g>
</svg>
